<svg width="93" height="50" viewBox="0 0 93 50" fill="none" xmlns="http://www.w3.org/2000/svg">
    <g clip-path="url(#clip0)">
        <path d="M91.6257 39.8696H88.4011V31.9104C88.4011 31.1494 87.7862 30.5324 87.0277 30.5324H79.8347L86.1987 18.9911C86.3995 18.6269 86.4256 18.1911 86.2694 17.8055C86.1132 17.4198 85.7912 17.1257 85.3947 17.0051C85.3062 16.9783 83.1915 16.3468 80.2212 16.3468C77.5594 16.3468 75.0372 16.8586 72.775 17.8417C73.7454 14.4338 73.984 12.7313 73.2631 11.7118C72.9431 11.259 72.4432 10.9854 71.8924 10.9606C71.6745 10.9509 71.4469 10.946 71.2155 10.946C69.3985 10.946 65.5251 11.272 61.7692 13.6606C62.2973 11.9759 62.8832 10.0852 63.3639 8.4285C64.6296 4.06531 64.5859 3.49248 64.1201 2.85488C63.8517 2.48716 63.4214 2.26767 62.9695 2.26767C62.8526 2.26767 62.7194 2.285 62.6062 2.31433C61.3136 2.65114 57.2569 3.89464 52.2431 7.24641L51.9955 1.29287C51.9777 0.8661 51.7636 0.471806 51.4165 0.225153C51.0689 -0.0215007 50.6264 -0.0925632 50.2197 0.0330273C50.038 0.0889328 45.7108 1.4413 40.4955 4.60901C35.8555 7.42732 29.6632 12.2555 25.9595 19.4511C25.0856 19.3133 24.2782 19.2133 23.5446 19.1409C20.8841 16.4614 16.7042 15.0992 11.1026 15.0992C6.77831 15.0992 3.21272 15.9313 3.06301 15.9667C2.5882 16.0791 2.20836 16.4358 2.06532 16.9039C1.92229 17.372 2.03746 17.8809 2.36787 18.2411C7.98122 24.3596 11.9685 31.4759 13.7009 34.8474H13.5402C13.4204 34.8474 13.3011 34.8631 13.1851 34.8942L5.61659 36.9267C5.01582 37.0879 4.5983 37.6342 4.5983 38.2578V39.8696H1.37391C0.615387 39.8696 0.000488281 40.4866 0.000488281 41.2476V48.7151C0.000488281 49.4757 0.615387 50.0931 1.37391 50.0931H91.6257C92.3842 50.0931 92.9991 49.4757 92.9991 48.7151V41.2476C92.9991 40.4866 92.3842 39.8696 91.6257 39.8696ZM71.7109 21.6864C71.7133 21.6761 71.7151 21.6659 71.7176 21.6557L71.7463 21.5161C74.1586 19.9143 77.007 19.1029 80.2206 19.1029C81.2539 19.1027 82.1684 19.1915 82.8904 19.2968L76.6961 30.5311H72.9719C72.7308 30.5311 72.494 30.5946 72.2852 30.7157L70.1048 31.9787L69.5502 32.2996C69.6461 31.7444 69.7505 31.1704 69.8598 30.5832L69.9746 29.9767C70.0165 29.7586 70.0589 29.5389 70.1013 29.3183L70.1266 29.194C70.1286 29.1842 70.1307 29.1746 70.1321 29.1653L70.5027 27.3086C70.5277 27.1872 70.5526 27.0657 70.5777 26.9437L70.5979 26.8501C70.6001 26.8405 70.602 26.8309 70.6036 26.8214L70.8539 25.6192C70.8896 25.4501 70.9254 25.2809 70.9613 25.1126L71.7109 21.6864ZM70.9169 13.7051C70.7723 14.9891 70.0107 17.5281 69.6907 18.5952C69.4593 19.3649 69.2775 19.9732 69.1858 20.3799C69.1856 20.3807 69.1852 20.3815 69.185 20.3822L69.0816 20.8413C69.0801 20.848 69.0785 20.8547 69.0775 20.8614L68.9845 21.2797C68.9831 21.2862 68.9816 21.2927 68.9804 21.2992L68.96 21.3913C68.8368 21.9466 68.7106 22.5212 68.5825 23.11L68.4147 23.8763C68.413 23.883 68.4116 23.8895 68.4106 23.8964L68.2125 24.8261C68.2083 24.8456 68.2044 24.8657 68.2005 24.8858L68.1613 25.0677C68.1593 25.0748 68.1577 25.0816 68.1569 25.0885L68.0108 25.7818C68.0092 25.7885 68.0076 25.7954 68.0067 25.8023L67.8636 26.4954C67.8619 26.5027 67.8603 26.5098 67.8595 26.5171L67.812 26.7525C67.8079 26.7714 67.8048 26.7905 67.8016 26.8102L67.7728 26.9539C67.6862 27.3803 67.6009 27.8055 67.5171 28.2293L67.391 28.8563C67.3896 28.8624 67.3884 28.8688 67.387 28.8757L67.3425 29.1041C67.3386 29.1232 67.3358 29.1421 67.3323 29.1622L67.0863 30.4513C67.0821 30.4748 67.0776 30.4986 67.0741 30.5228L67.0015 30.9127C66.9999 30.921 66.9982 30.9295 66.9972 30.9377L66.9264 31.3405C66.9246 31.348 66.9232 31.3555 66.9222 31.3629L66.8216 31.959C66.7841 32.1765 66.7482 32.3903 66.7125 32.6027L66.6415 33.0267C66.6397 33.036 66.6379 33.0454 66.6372 33.0549L66.5806 33.411C66.5793 33.419 66.5779 33.4271 66.5765 33.4352L66.5396 33.6761H60.7807C60.6602 33.6761 60.5398 33.6921 60.424 33.7232L57.5241 34.5064C57.5232 34.494 57.522 34.4834 57.5212 34.4708C57.5202 34.4537 57.5194 34.436 57.5184 34.4187C57.5139 34.3324 57.51 34.244 57.5069 34.1529C57.5061 34.1251 57.5055 34.0974 57.5049 34.0694C57.5029 33.984 57.502 33.897 57.5016 33.8078C57.5016 33.7785 57.5016 33.7488 57.5016 33.7188C57.502 33.6228 57.5033 33.5234 57.5057 33.4222C57.5063 33.3996 57.5065 33.3773 57.5071 33.3547C57.5139 33.097 57.5269 32.8255 57.5451 32.5395C57.5457 32.5307 57.5465 32.5212 57.5471 32.5122C57.5557 32.3818 57.5661 32.2482 57.5767 32.1124C57.5791 32.0828 57.5816 32.0527 57.5842 32.0232C57.5944 31.9033 57.605 31.7812 57.6173 31.6564C57.6207 31.6234 57.6236 31.5907 57.6269 31.5576C57.6399 31.4269 57.654 31.2938 57.6689 31.1592C57.6723 31.1344 57.6742 31.11 57.6772 31.0848C57.7145 30.7533 57.7574 30.4092 57.8065 30.0523C57.8065 30.0521 57.8065 30.0517 57.8065 30.0515C57.8302 29.8791 57.8553 29.7029 57.8818 29.5251C57.8861 29.495 57.891 29.4637 57.8954 29.4334C57.9179 29.2818 57.9415 29.1285 57.966 28.9728C57.9715 28.9358 57.978 28.8978 57.984 28.8604C58.0091 28.7021 58.0354 28.5425 58.0621 28.3805C58.067 28.3501 58.0725 28.32 58.077 28.2897C58.1761 27.7041 58.2874 27.0925 58.4108 26.4572C58.4178 26.4202 58.4253 26.3832 58.4324 26.3464C58.4663 26.1728 58.501 25.998 58.5361 25.822C58.5458 25.7755 58.5554 25.7285 58.5648 25.682C58.6005 25.5061 58.637 25.3289 58.6747 25.1503C58.6833 25.1088 58.6917 25.0681 58.7006 25.0265C58.7455 24.8147 58.7908 24.6007 58.8377 24.3844C58.8391 24.3783 58.8405 24.3724 58.8418 24.3665C58.9415 23.9078 59.0467 23.4391 59.1565 22.9616C59.1662 22.9202 59.1764 22.8785 59.1854 22.837C59.2303 22.644 59.2756 22.4498 59.3217 22.2539C59.3345 22.1996 59.3478 22.145 59.3604 22.0905C59.4055 21.9009 59.4516 21.71 59.4983 21.5179C59.5111 21.4651 59.5238 21.4127 59.5366 21.36C59.5911 21.1356 59.647 20.9096 59.7041 20.6818C59.7083 20.6663 59.7116 20.6511 59.7161 20.6358C59.8425 20.1311 59.9737 19.6177 60.1103 19.097C60.1217 19.0537 60.133 19.0102 60.1446 18.9667C60.1813 18.8279 60.2184 18.6877 60.2555 18.548C63.9166 14.3793 68.7179 13.7535 70.9169 13.7051ZM51.8003 10.9354C51.8478 10.8994 51.8927 10.8604 51.9347 10.8192C55.7626 7.95803 59.1497 6.41058 61.2969 5.62023C60.6306 8.14877 59.2478 12.5269 58.5573 14.7127C58.1163 16.109 57.7973 17.1189 57.6866 17.5269C57.6862 17.5285 57.6854 17.5301 57.685 17.5316C57.5681 17.9681 57.4457 18.4336 57.3213 18.9177C57.3148 18.9429 57.3083 18.9679 57.3012 18.9931C57.2646 19.1356 57.2279 19.2797 57.1908 19.4257C57.1818 19.4608 57.1727 19.496 57.1635 19.5313C57.1268 19.6763 57.0901 19.8222 57.0531 19.9702C57.0458 19.9994 57.0385 20.0291 57.0313 20.0584C56.8696 20.7068 56.7062 21.3826 56.5449 22.0765C56.5325 22.1281 56.521 22.1791 56.5084 22.2309C56.477 22.3673 56.446 22.5045 56.4144 22.6421C56.3987 22.7114 56.383 22.7805 56.3673 22.85C56.3379 22.9805 56.3087 23.1112 56.2794 23.2425C56.262 23.3212 56.2445 23.4001 56.2272 23.4791C56.1986 23.6068 56.1711 23.7346 56.1433 23.8629C56.1258 23.9437 56.1083 24.0246 56.0909 24.1053C56.063 24.2352 56.0357 24.3649 56.0081 24.4952C55.9926 24.5692 55.9775 24.6433 55.9626 24.7175C55.9027 25.0041 55.8444 25.2915 55.7877 25.5789C55.7787 25.6238 55.7697 25.6685 55.7609 25.7133C55.7375 25.8322 55.7149 25.9517 55.6916 26.0706C55.6732 26.1657 55.6547 26.2618 55.6375 26.357C55.6161 26.4704 55.5953 26.5836 55.5745 26.6974C55.556 26.7986 55.5376 26.8992 55.5195 27.0001C55.4995 27.1114 55.4805 27.2228 55.4605 27.3336C55.4426 27.4362 55.425 27.5381 55.4077 27.6405C55.3887 27.7501 55.3706 27.8592 55.3526 27.9687C55.3353 28.0734 55.3186 28.1779 55.3019 28.282C55.2851 28.3875 55.268 28.4931 55.2519 28.5978C55.2337 28.7124 55.217 28.8261 55.1999 28.9399C55.1866 29.0338 55.1717 29.1275 55.1583 29.2206C55.1301 29.4179 55.1032 29.6135 55.0777 29.8072C55.0665 29.8911 55.0573 29.9734 55.0463 30.0568C55.0316 30.1769 55.0163 30.2976 55.0018 30.4167C54.9912 30.5063 54.9815 30.5942 54.9717 30.6832C54.9594 30.794 54.9472 30.9041 54.9358 31.0133C54.9264 31.1037 54.9178 31.1929 54.9091 31.282C54.8986 31.3893 54.8887 31.4958 54.8801 31.6015C54.8727 31.6881 54.8652 31.7749 54.8587 31.8604C54.8501 31.9688 54.8428 32.0757 54.8356 32.1818C54.8303 32.2625 54.824 32.3433 54.8197 32.4234C54.8126 32.5419 54.8071 32.6572 54.8012 32.7728C54.7983 32.8374 54.795 32.9031 54.792 32.9669C54.7857 33.1419 54.7804 33.3141 54.7785 33.4824C54.7777 33.5307 54.7783 33.5771 54.7779 33.6255C54.7767 33.7478 54.7761 33.8696 54.7781 33.9887C54.7789 34.0523 54.781 34.1145 54.7822 34.1769C54.7846 34.2775 54.7873 34.3777 54.7916 34.4748C54.795 34.5395 54.7981 34.6027 54.8022 34.6665C54.8044 34.7029 54.8057 34.7399 54.8075 34.7755L54.7718 34.7797C54.7396 34.7474 54.7069 34.7159 54.6747 34.6832C54.4997 34.507 54.3245 34.3338 54.1491 34.1616C54.0631 34.0769 53.9784 33.9929 53.8922 33.909C53.6301 33.6547 53.3678 33.4043 53.1053 33.1582C53.0958 33.1494 53.0862 33.1409 53.0766 33.132C52.8119 32.8842 52.5478 32.6423 52.283 32.4035C52.2335 32.3586 52.1841 32.3153 52.1346 32.2708C51.887 32.0494 51.64 31.8314 51.3928 31.6169C51.3659 31.594 51.3396 31.571 51.3131 31.5478C47.4446 28.2082 43.5679 25.7486 39.9087 23.9395C39.9762 23.835 40.0445 23.7316 40.1125 23.6279C40.2597 23.4027 40.407 23.1779 40.5554 22.9582C40.6541 22.8118 40.7543 22.6675 40.8538 22.5226C40.9951 22.3173 41.1365 22.1122 41.2786 21.9114C41.3884 21.7561 41.4997 21.6025 41.6107 21.449C41.7426 21.2665 41.8744 21.0844 42.0067 20.9061C42.1319 20.7372 42.2586 20.57 42.3851 20.4031C42.5029 20.2482 42.6204 20.0935 42.7383 19.9415C42.8849 19.7527 43.0328 19.5659 43.1813 19.3799C43.2787 19.2578 43.376 19.1358 43.4733 19.0157C43.6495 18.7988 43.8272 18.5844 44.0062 18.3716C44.0748 18.2897 44.1435 18.2072 44.2122 18.1261C44.431 17.8688 44.6515 17.6145 44.874 17.3631C44.9018 17.3316 44.9295 17.2998 44.9572 17.2685C47.0758 14.8877 49.3607 12.7712 51.8003 10.9354ZM49.3297 3.28756L49.5744 9.17338C49.5509 9.19169 49.5279 9.21098 49.5042 9.22948C49.2564 9.42279 49.0082 9.62003 48.7574 9.82377C48.7086 9.86334 48.6603 9.9035 48.612 9.94326C48.4162 10.1037 48.22 10.2679 48.023 10.4348C47.9361 10.5084 47.8486 10.5818 47.7621 10.6563C47.5682 10.823 47.3738 10.9931 47.1786 11.1661C47.0597 11.2718 46.9408 11.3785 46.8225 11.4856C46.7195 11.5791 46.6155 11.6744 46.5119 11.7696C46.2931 11.9708 46.0759 12.1744 45.8599 12.3803C45.7928 12.4442 45.7257 12.5082 45.6584 12.573C45.1854 13.0289 44.7196 13.4962 44.2605 13.9746C44.2259 14.0106 44.1914 14.0466 44.1571 14.0828C43.6736 14.5893 43.198 15.108 42.7305 15.6391C42.6979 15.6761 42.6655 15.7131 42.6329 15.7503C42.1642 16.2858 41.7033 16.8332 41.2509 17.3929C41.196 17.4608 41.1412 17.5291 41.0863 17.5976C40.6593 18.1311 40.2397 18.6753 39.8274 19.2303C39.7429 19.344 39.6583 19.4582 39.574 19.5736C39.4639 19.7242 39.3542 19.875 39.2453 20.0271C39.1382 20.1765 39.0315 20.3283 38.9247 20.4803C38.7984 20.6602 38.6726 20.8407 38.5478 21.0226C38.4066 21.2283 38.2657 21.4356 38.1254 21.6458C38.0451 21.7659 37.9659 21.887 37.8862 22.008C37.7618 22.197 37.6378 22.3881 37.5142 22.5807C37.4722 22.6462 37.4291 22.7104 37.3873 22.7763C34.2563 21.4354 31.3368 20.5588 28.7854 19.9897C34.2938 10.0275 45.1473 4.94189 49.3297 3.28756ZM22.7184 21.8328C22.7327 21.834 22.747 21.8332 22.7614 21.834C23.7744 21.9187 24.9665 22.0622 26.303 22.2974C26.3623 22.3171 26.4227 22.3338 26.4849 22.3452C30.1492 23.0163 33.8034 24.1742 37.3463 25.7866C37.3467 25.7868 37.3473 25.787 37.3476 25.7872C42.0636 27.9364 46.476 30.8612 50.5062 34.5049C50.5352 34.5314 50.5646 34.558 50.5937 34.5844C50.6888 34.6706 50.7828 34.7604 50.8778 34.8474H27.3172L24.7675 29.1799C24.7605 29.1622 24.7556 29.1438 24.7477 29.1265L21.426 21.75C21.8064 21.7671 22.2395 21.7933 22.7184 21.8328ZM24.3037 34.8478H21.2526L23.1808 32.3517L24.3037 34.8478ZM6.0241 18.2326C7.36005 18.0409 9.15609 17.8555 11.1034 17.8555C13.4015 17.8555 16.2394 18.122 18.6507 19.1474C18.6393 19.1535 18.6291 19.1614 18.618 19.1679C18.5879 19.1848 18.5587 19.2033 18.5301 19.2226C18.51 19.2362 18.49 19.2498 18.4708 19.2641C18.4422 19.2856 18.4153 19.3088 18.3884 19.3324C18.3711 19.3476 18.3537 19.3624 18.3372 19.3785C18.3089 19.4061 18.2828 19.4356 18.2571 19.4655C18.2444 19.4805 18.2307 19.4942 18.2185 19.5096C18.1828 19.5549 18.1494 19.6025 18.1194 19.6527C18.1186 19.6541 18.1174 19.6553 18.1167 19.6566C18.1167 19.6566 18.1167 19.6568 18.1165 19.6568C18.1165 19.657 18.1163 19.6572 18.1161 19.6576C18.0978 19.6883 18.0831 19.7204 18.0672 19.7521C18.0582 19.7702 18.0474 19.7877 18.0394 19.8061C18.0284 19.8311 18.0205 19.857 18.0109 19.8824C18.0011 19.9088 17.9897 19.9348 17.9815 19.9616C17.9754 19.9816 17.9721 20.0023 17.9668 20.0226C17.9583 20.0557 17.9489 20.0885 17.9428 20.122C17.9395 20.1409 17.9387 20.16 17.9361 20.1789C17.9314 20.2143 17.9258 20.2496 17.9238 20.2852C17.9112 20.5039 17.9507 20.7255 18.0431 20.9311L21.9018 29.5088L17.7772 34.8478H16.7752C15.5925 32.4261 11.7615 25.0234 6.0241 18.2326ZM7.34533 39.3159L13.7211 37.6039H15.9094H18.4504H26.4303H54.2574C54.2587 37.6039 54.2601 37.6045 54.2615 37.6045C54.2627 37.6045 54.2634 37.6039 54.2648 37.6039H54.2672H56.4448C56.498 37.6039 56.5492 37.6001 56.6004 37.5946C56.6063 37.5938 56.6128 37.5931 56.6185 37.5923C56.63 37.5909 56.6406 37.5881 56.6524 37.5866C56.6869 37.5818 56.7211 37.5751 56.7546 37.5677C56.7662 37.5649 56.7766 37.5623 56.7876 37.5596C56.7925 37.5582 56.798 37.5578 56.8023 37.5564L60.964 36.4328H67.5358C67.5624 36.4328 67.5889 36.4291 67.6152 36.4277C67.6468 36.4257 67.6786 36.4253 67.7094 36.4216C67.7388 36.4177 67.7675 36.4104 67.7965 36.4051C67.825 36.3998 67.8536 36.395 67.8817 36.3877C67.9109 36.3801 67.9393 36.3692 67.968 36.3596C67.9949 36.3505 68.0218 36.3431 68.0479 36.3322C68.0765 36.3202 68.1046 36.3057 68.1328 36.2923C68.154 36.2818 68.1762 36.2734 68.1968 36.2622L68.2199 36.2494C68.2203 36.2494 68.2205 36.2494 68.2209 36.249L68.2231 36.2478L68.41 36.145C68.4228 36.1379 68.4342 36.1293 68.4469 36.122L71.3941 34.4147L73.3412 33.2885H85.6555V39.8702H7.34533V39.3159ZM90.2523 47.3368H2.74732V46.3592H46.4999C47.2584 46.3592 47.8733 45.7423 47.8733 44.9812C47.8733 44.2202 47.2584 43.6033 46.4999 43.6033H2.74732V42.6255H5.97191H87.0281H90.2523V47.3368Z"
              fill="#fff"/>
    </g>
    <defs>
        <clipPath id="clip0">
            <rect width="93" height="50" fill="white"/>
        </clipPath>
    </defs>
</svg>
