<?xml version="1.0" encoding="iso-8859-1"?>
<!-- Generator: Adobe Illustrator 22.0.0, SVG Export Plug-In . SVG Version: 6.00 Build 0)  -->
<svg fill="#fff" xmlns="http://www.w3.org/2000/svg" xmlns:xlink="http://www.w3.org/1999/xlink" version="1.1"
     id="Layer_1" x="0px" y="0px" viewBox="0 0 62 60" style="enable-background:new 0 0 62 60;" xml:space="preserve"
     width="512" height="512">
<g id="_x35_-Modern_House">
	<g>
		<path d="M54.03,32h6v-4.813l1.274-0.363c0.429-0.123,0.726-0.515,0.726-0.962V21c0-0.315-0.148-0.612-0.401-0.801    c-0.252-0.189-0.58-0.247-0.882-0.158L44.401,24.86L3.306,13.039c-0.302-0.087-0.626-0.027-0.878,0.162    C2.178,13.39,2.03,13.686,2.03,14v4.379c0,0.447,0.296,0.839,0.726,0.961l3.274,0.934V24h7c0.552,0,1,0.448,1,1v7    c0,0.552-0.448,1-1,1h-7v3.173L0.747,37.73c-0.425,0.125-0.717,0.516-0.717,0.959v4.276c0,0.313,0.147,0.609,0.397,0.798    c0.176,0.132,0.388,0.202,0.603,0.202c0.092,0,0.184-0.013,0.274-0.038l1.726-0.492v12.361c-0.651,0.749-1,1.822-1,3.203    c0,0.552,0.448,1,1,1h17h0.104H31.03h4h5h3.896H61.03c0.552,0,1-0.448,1-1c0-1.966-0.706-3.307-2-3.963V50h-6    c-0.552,0-1-0.448-1-1v-6c0-0.552,0.448-1,1-1h6v-3h-6c-0.552,0-1-0.448-1-1v-5C53.03,32.448,53.478,32,54.03,32z M4.03,17.625    v-2.297l36.798,10.585l-0.559,0.165l-3.248,0.958L4.03,17.625z M4.118,58c0.096-0.462,0.271-0.778,0.509-0.997    c0.015-0.011,0.031-0.016,0.045-0.028c0.322-0.27,0.816-0.407,1.468-0.407c0.123,0,0.273,0.042,0.459,0.13    c0.247,0.115,0.531,0.125,0.786,0.026c0.254-0.099,0.458-0.297,0.562-0.549c0.09-0.218,0.188-0.422,0.293-0.612    c0.736-1.33,1.834-1.978,3.342-1.978c1.723,0,2.912,0.847,3.635,2.59c0.104,0.252,0.308,0.45,0.562,0.549    c0.153,0.06,0.315,0.067,0.476,0.048c0.105-0.007,0.21-0.028,0.309-0.074c0.187-0.087,0.337-0.13,0.459-0.13    c1.051,0,1.78,0.265,2.022,1.431L4.118,58L4.118,58z M31.03,58h-2V45h-3v13h-2V45h-6.965v9.569h-0.041    c-0.117,0-0.234,0.008-0.352,0.024c-0.434-0.784-0.975-1.413-1.607-1.895V45H12.03v6.6l-0.448-0.014    c-0.548,0-1.065,0.064-1.552,0.185V44c0-0.552,0.448-1,1-1h5.035h8.965h5c0.552,0,1,0.448,1,1V58z M40.03,43c-0.552,0-1,0.448-1,1    v14h-3V34.029l13-3.706v22.351c-0.147,0.11-0.287,0.231-0.423,0.358c-0.027,0.025-0.054,0.05-0.081,0.075    c-0.118,0.114-0.232,0.233-0.343,0.359c-0.054,0.062-0.105,0.127-0.158,0.192c-0.087,0.109-0.175,0.217-0.257,0.335    c-0.104,0.149-0.202,0.308-0.297,0.471c-0.026,0.045-0.057,0.084-0.082,0.13c-0.118-0.016-0.235-0.024-0.352-0.024    c-0.002,0-0.004,0-0.006,0V44c0-0.552-0.448-1-1-1H40.03z M55.82,55.565c0.105,0.19,0.203,0.394,0.293,0.612    c0.104,0.252,0.308,0.45,0.562,0.549c0.116,0.045,0.239,0.068,0.377,0.064c0.14-0.002,0.278-0.03,0.408-0.091    c0.187-0.087,0.337-0.13,0.46-0.13c0.309,0,0.596,0.035,0.854,0.103c0.01,0.003,0.021-0.001,0.031,0.001    c0.571,0.157,0.971,0.528,1.137,1.328H45.03c0.014-0.063,0.023-0.138,0.047-0.222c0.121-0.401,0.341-0.746,0.716-0.953    c0.27-0.148,0.577-0.218,0.883-0.244c0.266-0.023,0.547-0.013,0.796,0.093c0.271,0.114,0.521,0.163,0.809,0.052    c0.254-0.099,0.458-0.297,0.562-0.549c0.364-0.875,0.926-1.661,1.766-2.13c1.255-0.701,3.021-0.628,4.17,0.263    C55.213,54.646,55.555,55.086,55.82,55.565z M49.861,28.006l-0.105,0.03l-15,4.276l-31,8.837c0,0-0.001,0-0.001,0.001L2.03,41.642    v-2.204l5.281-1.557c0,0,0.001,0,0.002,0l29.99-8.842l0,0l0.006-0.002l0,0l7.378-2.175l0,0l15.342-4.523v2.77L49.861,28.006z"/>
        <path d="M53.03,4c1.103,0,2,0.897,2,2c0,0.552,0.448,1,1,1s1-0.448,1-1c0-2.206,1.794-4,4-4c0.552,0,1-0.448,1-1s-0.448-1-1-1    c-2.256,0-4.226,1.252-5.25,3.098C55.063,2.418,54.094,2,53.03,2c-0.552,0-1,0.448-1,1S52.478,4,53.03,4z"/>
        <path d="M22.03,15h10c2.206,0,4-1.794,4-4h2c2.206,0,4-1.794,4-4c0-2.341-2.06-4.226-4.408-3.978C36.845,1.224,35.051,0,33.03,0    s-3.815,1.224-4.591,3.022c-1.384-0.147-2.656,0.46-3.478,1.454c-1.14,0.521-2.04,1.418-2.524,2.546    C20.095,6.769,18.03,8.659,18.03,11C18.03,13.206,19.824,15,22.03,15z M22.03,9c0.235,0,0.477,0.047,0.719,0.141    c0.275,0.105,0.583,0.086,0.842-0.056c0.258-0.142,0.441-0.391,0.5-0.68c0.022-0.113,0.051-0.223,0.086-0.331    c0.031,0.11,0.078,0.213,0.118,0.319c0.027,0.073,0.049,0.147,0.08,0.217c0.502,1.131,1.573,1.982,2.778,2.276    c0.836,0.204,1.765,0.113,2.621,0.113c1.419,0,2.838,0,4.256,0c0,1.103-0.897,2-2,2h-10c-1.103,0-2-0.897-2-2S20.927,9,22.03,9z"/>
        <rect x="6.03" y="26" width="6" height="5"/>
        <rect x="55.03" y="44" width="5" height="4"/>
        <rect x="55.03" y="34" width="5" height="3"/>
	</g>
</g>

</svg>
