<svg width="34" height="48" viewBox="0 0 34 48" fill="none" xmlns="http://www.w3.org/2000/svg">
<path d="M8 1.5L25.5 1.5" stroke="white" stroke-linecap="round"/>
<line x1="5.19998" y1="46.7149" x2="28.614" y2="46.7149" stroke="white" stroke-linecap="round"/>
<line x1="17.5757" y1="46.2" x2="17.5757" y2="28.4946" stroke="white" stroke-linecap="round"/>
<line x1="25.5757" y1="1.84854" x2="33.095" y2="28.417" stroke="white" stroke-linecap="round"/>
<path fill-rule="evenodd" clip-rule="evenodd" d="M8.15753 1.72263C8.22792 1.45561 8.06851 1.18209 7.80149 1.1117C7.53447 1.04132 7.26095 1.20072 7.19056 1.46774L0.152539 28.1678C0.0821537 28.4348 0.241558 28.7083 0.50858 28.7787C0.670078 28.8213 0.833955 28.7798 0.95383 28.6812C1.03377 28.7354 1.13021 28.7671 1.23406 28.7671L33.2696 28.7638C33.5457 28.7637 33.7696 28.5398 33.7695 28.2637C33.7695 27.9876 33.5456 27.7637 33.2695 27.7638L1.29232 27.7671L8.15753 1.72263Z" fill="white"/>
</svg>
