<svg width="16" height="10" viewBox="0 0 16 10" fill="none" xmlns="http://www.w3.org/2000/svg">
    <path d="M10.3177 0.656221H14.261V1.61288H10.3177V0.656221ZM6.36654 4.44135C7.2382 4.0243 7.69479 3.38982 7.69479 2.40944C7.69479 0.470424 6.25189 0 4.58564 0H0V9.73264H4.71412C6.48118 9.73264 8.13952 8.88271 8.13952 6.90614C8.13952 5.68462 7.56236 4.78133 6.36654 4.44135V4.44135ZM2.13865 1.66032H4.14487C4.91771 1.66032 5.61149 1.87577 5.61149 2.77313C5.61149 3.59934 5.07188 3.9314 4.30695 3.9314H2.13865V1.66032ZM4.42159 8.08022H2.13667V5.39999H4.46705C5.4079 5.39999 6.00285 5.79333 6.00285 6.78952C6.00285 7.7699 5.29326 8.08022 4.42159 8.08022V8.08022ZM15.8027 6.31119C15.8027 4.22591 14.5831 2.4885 12.3773 2.4885C10.2327 2.4885 8.774 4.10336 8.774 6.22027C8.774 8.41426 10.1556 9.92041 12.3773 9.92041C14.0594 9.92041 15.1484 9.16338 15.6722 7.54852H13.9665C13.7807 8.15138 13.0256 8.46763 12.4386 8.46763C11.304 8.46763 10.711 7.8035 10.711 6.67488H15.7888C15.7948 6.55826 15.8027 6.43572 15.8027 6.31119V6.31119ZM10.711 5.45336C10.7723 4.52635 11.391 3.94721 12.316 3.94721C13.2885 3.94721 13.7747 4.51844 13.8597 5.45336H10.711Z"
          fill="#ffffff"/>
</svg>
