<svg width="12" height="13" viewBox="0 0 12 13" fill="none" xmlns="http://www.w3.org/2000/svg">
    <path d="M5.99437 2.91284C5.17729 2.91284 4.39368 3.23742 3.81592 3.81519C3.23816 4.39295 2.91357 5.17656 2.91357 5.99364C2.91357 6.81072 3.23816 7.59433 3.81592 8.17209C4.39368 8.74985 5.17729 9.07443 5.99437 9.07443C6.81145 9.07443 7.59506 8.74985 8.17282 8.17209C8.75058 7.59433 9.07517 6.81072 9.07517 5.99364C9.07517 5.17656 8.75058 4.39295 8.17282 3.81519C7.59506 3.23742 6.81145 2.91284 5.99437 2.91284V2.91284ZM5.99437 7.99442C5.46355 7.99442 4.95448 7.78356 4.57913 7.40821C4.20379 7.03287 3.99292 6.52379 3.99292 5.99297C3.99292 5.46215 4.20379 4.95308 4.57913 4.57773C4.95448 4.20239 5.46355 3.99152 5.99437 3.99152C6.52519 3.99152 7.03427 4.20239 7.40961 4.57773C7.78495 4.95308 7.99582 5.46215 7.99582 5.99297C7.99582 6.52379 7.78495 7.03287 7.40961 7.40821C7.03427 7.78356 6.52519 7.99442 5.99437 7.99442V7.99442Z"
          fill="#ffffff"/>
    <path d="M9.19723 3.51776C9.5939 3.51776 9.91547 3.1962 9.91547 2.79953C9.91547 2.40286 9.5939 2.0813 9.19723 2.0813C8.80057 2.0813 8.479 2.40286 8.479 2.79953C8.479 3.1962 8.80057 3.51776 9.19723 3.51776Z"
          fill="#ffffff"/>
    <path d="M11.6802 2.06941C11.526 1.67111 11.2903 1.30939 10.9882 1.00743C10.6861 0.705462 10.3243 0.469895 9.92597 0.315808C9.45981 0.140819 8.96734 0.0461994 8.46952 0.0359781C7.82791 0.00799508 7.6247 0 5.99769 0C4.37068 0 4.16214 -6.70145e-08 3.52586 0.0359781C3.02842 0.0456768 2.5363 0.140316 2.07074 0.315808C1.67228 0.469716 1.31038 0.705218 1.00828 1.00721C0.706174 1.3092 0.470533 1.671 0.316474 2.06941C0.141451 2.53554 0.0470478 3.02805 0.0373107 3.52586C0.0086614 4.1668 0 4.37001 0 5.99769C0 7.6247 -4.96404e-09 7.83191 0.0373107 8.46952C0.0473046 8.96789 0.141247 9.45959 0.316474 9.92664C0.470966 10.3249 0.706835 10.6866 1.00901 10.9885C1.31119 11.2905 1.67303 11.526 2.07141 11.6802C2.53608 11.8623 3.02841 11.9637 3.52719 11.9801C4.1688 12.008 4.37201 12.0167 5.99902 12.0167C7.62604 12.0167 7.83458 12.0167 8.47086 11.9801C8.96862 11.9699 9.46108 11.8755 9.92731 11.7009C10.3256 11.5464 10.6873 11.3107 10.9893 11.0086C11.2914 10.7066 11.5271 10.3449 11.6816 9.94663C11.8568 9.48024 11.9507 8.98854 11.9607 8.49018C11.9894 7.84923 11.998 7.64602 11.998 6.01834C11.998 4.39067 11.998 4.18413 11.9607 3.54651C11.953 3.04167 11.8581 2.54196 11.6802 2.06941V2.06941ZM10.8687 8.42022C10.8644 8.80419 10.7944 9.18458 10.6615 9.54487C10.5615 9.80396 10.4083 10.0392 10.2118 10.2356C10.0154 10.4319 9.78003 10.5849 9.52089 10.6848C9.16459 10.8171 8.78824 10.8871 8.40823 10.8921C7.77528 10.9214 7.59672 10.9287 5.97371 10.9287C4.34936 10.9287 4.18346 10.9287 3.53852 10.8921C3.1587 10.8874 2.78253 10.8173 2.42653 10.6848C2.16648 10.5856 1.93016 10.4328 1.73287 10.2364C1.53559 10.0401 1.38172 9.80445 1.28122 9.54487C1.15027 9.18845 1.08022 8.81254 1.07401 8.43288C1.04537 7.79993 1.0387 7.62137 1.0387 5.99836C1.0387 4.37468 1.0387 4.20878 1.07401 3.56317C1.07832 3.17942 1.14841 2.79925 1.28122 2.43919C1.48443 1.9135 1.90085 1.49976 2.42653 1.29854C2.7827 1.16672 3.15877 1.09664 3.53852 1.09134C4.17213 1.06269 4.35003 1.05469 5.97371 1.05469C7.59739 1.05469 7.76395 1.05469 8.40823 1.09134C8.78827 1.09591 9.16467 1.16601 9.52089 1.29854C9.78001 1.39867 10.0153 1.55186 10.2118 1.74829C10.4082 1.94472 10.5614 2.18006 10.6615 2.43919C10.7925 2.7956 10.8625 3.17151 10.8687 3.55118C10.8974 4.18479 10.9047 4.36268 10.9047 5.98636C10.9047 7.60938 10.9047 7.78394 10.8761 8.42089H10.8687V8.42022Z"
          fill="#ffffff"/>
</svg>
