<svg width="13" height="10" viewBox="0 0 13 10" fill="none" xmlns="http://www.w3.org/2000/svg">
    <path d="M11.0469 2.49217C11.055 2.6018 11.055 2.71081 11.055 2.81982C11.055 6.15587 8.51585 10 3.87545 10C2.44581 10 1.11765 9.58589 0 8.86668C0.202982 8.88986 0.398446 8.89801 0.609573 8.89801C1.74539 8.90075 2.84904 8.52095 3.74264 7.81982C3.21603 7.81029 2.70554 7.63655 2.28244 7.32285C1.85935 7.00916 1.54478 6.57117 1.38266 6.07004C1.53865 6.09322 1.69528 6.10888 1.85942 6.10888C2.08558 6.10888 2.31299 6.07756 2.52412 6.02305C1.95261 5.90766 1.43871 5.59789 1.0698 5.1464C0.700892 4.69491 0.499745 4.12959 0.500564 3.54655V3.51522C0.836988 3.70254 1.22729 3.8197 1.64077 3.83536C1.29438 3.60518 1.01035 3.29283 0.814021 2.92619C0.617692 2.55955 0.515169 2.15002 0.515599 1.73412C0.515599 1.26551 0.640271 0.835735 0.858915 0.461095C1.49301 1.24109 2.28386 1.87919 3.18026 2.33408C4.07666 2.78897 5.05861 3.0505 6.06252 3.10174C6.02368 2.9138 5.99987 2.71896 5.99987 2.52349C5.99971 2.19206 6.06487 1.86384 6.19163 1.5576C6.31839 1.25136 6.50426 0.973108 6.73862 0.738747C6.97298 0.504386 7.25123 0.318514 7.55747 0.191754C7.86371 0.0649954 8.19193 -0.000164377 8.52337 3.11404e-07C9.25009 3.11404e-07 9.90603 0.304473 10.3671 0.796893C10.9321 0.687644 11.4738 0.481407 11.9684 0.18732C11.7801 0.770465 11.3856 1.26494 10.8589 1.57812C11.36 1.52097 11.8497 1.38921 12.3117 1.18719C11.9666 1.69033 11.539 2.13153 11.0469 2.49217V2.49217Z"
          fill="#ffffff"/>
</svg>
