<svg width="14" height="11" viewBox="0 0 14 11" fill="none" xmlns="http://www.w3.org/2000/svg">
    <path d="M14 5.03281C14 4.99844 14 4.95938 13.9984 4.91406C13.9969 4.7875 13.9938 4.64531 13.9906 4.49375C13.9781 4.05781 13.9563 3.62344 13.9219 3.21406C13.875 2.65 13.8062 2.17969 13.7125 1.82656C13.6136 1.45805 13.4196 1.12195 13.1501 0.85187C12.8806 0.581788 12.5449 0.387181 12.1766 0.2875C11.7344 0.16875 10.8687 0.0953125 9.65 0.05C9.07031 0.028125 8.45 0.0140624 7.82969 0.00624991C7.6125 0.0031249 7.41094 0.0015625 7.22969 0H6.77031C6.58906 0.0015625 6.3875 0.0031249 6.17031 0.00624991C5.55 0.0140624 4.92969 0.028125 4.35 0.05C3.13125 0.096875 2.26406 0.170312 1.82344 0.2875C1.455 0.386937 1.11917 0.581462 0.8496 0.851581C0.58003 1.1217 0.386188 1.45793 0.2875 1.82656C0.192188 2.17969 0.125 2.65 0.078125 3.21406C0.04375 3.62344 0.021875 4.05781 0.00937498 4.49375C0.00468748 4.64531 0.00312498 4.7875 0.00156248 4.91406C0.00156248 4.95938 0 4.99844 0 5.03281V5.12031C0 5.15469 -2.38651e-08 5.19375 0.00156248 5.23906C0.00312498 5.36563 0.00624998 5.50781 0.00937498 5.65938C0.021875 6.09531 0.04375 6.52969 0.078125 6.93906C0.125 7.50313 0.19375 7.97344 0.2875 8.32656C0.4875 9.075 1.075 9.66563 1.82344 9.86563C2.26406 9.98438 3.13125 10.0578 4.35 10.1031C4.92969 10.125 5.55 10.1391 6.17031 10.1469C6.3875 10.15 6.58906 10.1516 6.77031 10.1531H7.22969C7.41094 10.1516 7.6125 10.15 7.82969 10.1469C8.45 10.1391 9.07031 10.125 9.65 10.1031C10.8687 10.0563 11.7359 9.98281 12.1766 9.86563C12.925 9.66563 13.5125 9.07656 13.7125 8.32656C13.8078 7.97344 13.875 7.50313 13.9219 6.93906C13.9563 6.52969 13.9781 6.09531 13.9906 5.65938C13.9953 5.50781 13.9969 5.36563 13.9984 5.23906C13.9984 5.19375 14 5.15469 14 5.12031V5.03281V5.03281ZM12.875 5.11406C12.875 5.14688 12.875 5.18281 12.8734 5.225C12.8719 5.34688 12.8688 5.48125 12.8656 5.62656C12.8547 6.04219 12.8328 6.45781 12.8 6.84375C12.7578 7.34688 12.6984 7.75938 12.625 8.03594C12.5281 8.39688 12.2437 8.68281 11.8844 8.77813C11.5562 8.86563 10.7297 8.93594 9.60625 8.97813C9.0375 9 8.425 9.01406 7.81406 9.02188C7.6 9.025 7.40156 9.02656 7.22344 9.02656H6.77656L6.18594 9.02188C5.575 9.01406 4.96406 9 4.39375 8.97813C3.27031 8.93438 2.44219 8.86563 2.11562 8.77813C1.75625 8.68125 1.47187 8.39688 1.375 8.03594C1.30156 7.75938 1.24219 7.34688 1.2 6.84375C1.16719 6.45781 1.14688 6.04219 1.13438 5.62656C1.12969 5.48125 1.12813 5.34531 1.12656 5.225C1.12656 5.18281 1.125 5.14531 1.125 5.11406V5.03906C1.125 5.00625 1.125 4.97031 1.12656 4.92813C1.12813 4.80625 1.13125 4.67188 1.13438 4.52656C1.14531 4.11094 1.16719 3.69531 1.2 3.30938C1.24219 2.80625 1.30156 2.39375 1.375 2.11719C1.47187 1.75625 1.75625 1.47031 2.11562 1.375C2.44375 1.2875 3.27031 1.21719 4.39375 1.175C4.9625 1.15312 5.575 1.13906 6.18594 1.13125C6.4 1.12813 6.59844 1.12656 6.77656 1.12656H7.22344L7.81406 1.13125C8.425 1.13906 9.03594 1.15312 9.60625 1.175C10.7297 1.21875 11.5578 1.2875 11.8844 1.375C12.2437 1.47188 12.5281 1.75625 12.625 2.11719C12.6984 2.39375 12.7578 2.80625 12.8 3.30938C12.8328 3.69531 12.8531 4.11094 12.8656 4.52656C12.8703 4.67188 12.8719 4.80781 12.8734 4.92813C12.8734 4.97031 12.875 5.00781 12.875 5.03906V5.11406ZM5.60938 7.17031L9.23438 5.06094L5.60938 2.98281V7.17031Z"
          fill="#ffffff"/>
</svg>
