<svg width="50" height="39" viewBox="0 0 50 39" fill="none" xmlns="http://www.w3.org/2000/svg">
<path d="M6.89359 10.4089C6.89359 10.4089 7.28756 8.14313 8.01822 6.1338C8.91828 3.6586 10.2684 0.508179 13.194 0.508217C17.4692 0.508273 24.6697 0.508217 24.6697 0.508217C24.6697 0.508217 34.1202 0.508236 36.8205 0.508217C39.5208 0.508198 41.0959 2.53328 42.4459 5.0085C43.7958 7.48373 43.5709 10.4089 43.5709 10.4089" stroke="white" stroke-linecap="round"/>
<path d="M12.743 19.6346C12.743 19.6346 14.5407 22.5598 16.3437 22.5598C27.8194 22.5599 25.3443 22.5598 34.1198 22.5598C35.8596 22.5598 37.9446 19.6346 37.9446 19.6346" stroke="white" stroke-linecap="round"/>
<path d="M6.66813 22.3348C6.66813 22.3348 6.66813 26.8351 6.66813 29.5352C6.66813 32.2354 10.4934 33.5855 10.4934 33.5855" stroke="white" stroke-linecap="round"/>
<path d="M43.7955 22.3348C43.7955 22.3348 43.7955 26.6101 43.7955 29.3102C43.7955 32.0104 39.7452 33.5855 39.7452 33.5855" stroke="white" stroke-linecap="round"/>
<path d="M37.945 19.6346C37.945 20.5347 37.3036 16.4508 37.945 14.9093C38.4247 13.7562 38.9538 13.1601 39.9701 12.4341C41.0331 11.6748 41.814 11.3207 43.1203 11.3091C45.007 11.2922 46.2631 12.0502 47.3956 13.5592C48.2797 14.7374 48.5849 15.6878 48.5206 17.1594C48.4435 18.9262 47.8853 20.1161 46.4955 21.2097C45.5337 21.9666 43.5703 22.3348 43.5703 22.3348" stroke="white"/>
<path d="M6.44311 22.3347C7.3277 22.5009 6.03145 22.3909 4.63484 21.476C3.59013 20.7917 3.10196 20.1616 2.57609 19.0288C2.02604 17.8439 1.82221 17.011 2.05191 15.725C2.38367 13.8677 3.36046 12.773 5.05264 11.9386C6.37379 11.2872 7.36422 11.1627 8.79869 11.4975C10.5208 11.8995 11.5872 12.6678 12.4055 14.2356C12.9718 15.3206 12.7436 19.8595 12.7436 19.8595" stroke="white"/>
<path d="M10.7184 33.5856H39.5202" stroke="white" stroke-linecap="round"/>
<path d="M10.5 33.5H17.0443V37.781H10.5V33.5Z" stroke="white"/>
<rect x="33.4948" y="33.8605" width="6.20046" height="3.05026" stroke="white"/>
</svg>
